Coordinates
version=1
nRows=14
nColumns=40
inDegrees=yes

Units are S.I. units (second, meters, Newtons, ...)
If the header above contains a line with 'inDegrees', this indicates whether rotational values are in degrees (yes) or radians (no).

endheader
time	pelvis_tilt	pelvis_list	pelvis_rotation	pelvis_tx	pelvis_ty	pelvis_tz	hip_flexion_r	hip_adduction_r	hip_rotation_r	knee_angle_r	knee_angle_r_beta	ankle_angle_r	subtalar_angle_r	mtp_angle_r	hip_flexion_l	hip_adduction_l	hip_rotation_l	knee_angle_l	knee_angle_l_beta	ankle_angle_l	subtalar_angle_l	mtp_angle_l	lumbar_extension	lumbar_bending	lumbar_rotation	arm_flex_r	arm_add_r	arm_rot_r	elbow_flex_r	pro_sup_r	wrist_flex_r	wrist_dev_r	arm_flex_l	arm_add_l	arm_rot_l	elbow_flex_l	pro_sup_l	wrist_flex_l	wrist_dev_l
      1.08800000	     19.00208483	      4.66205104	      6.29500811	      1.49696209	      0.96949036	     -0.36674170	      5.89750964	     -6.94424811	    -11.76811115	     23.22727416	      0.40539241	     -9.65379552	      0.00000000	      0.00000000	    -29.19146833	      4.73164326	      7.71129271	      9.35428633	      0.16326310	     -3.28208792	      0.00000000	      0.00000000	    -33.25443676	     -0.39232817	    -10.25963920	     -2.81994504	    -14.18659825	      6.30488088	     44.97867169	     76.23904929	      0.00000000	      0.00000000	     13.00846593	    -28.16201860	     31.98557218	     58.47489415	     78.06386140	      0.00000000	      0.00000000
      1.09200000	     18.71706499	      4.80398727	      6.21359615	      1.50184205	      0.96807956	     -0.36670919	      6.56277715	     -7.09247403	    -12.05675596	     22.37330952	      0.39048792	     -9.57567132	      0.00000000	      0.00000000	    -29.21332917	      4.90586035	      7.48452201	      9.41300536	      0.16428794	     -3.11819226	      0.00000000	      0.00000000	    -33.04265214	     -0.57011584	    -10.29019811	     -2.83228803	    -14.15852060	      6.30339392	     44.97164838	     76.21826101	      0.00000000	      0.00000000	     13.26560425	    -28.12208769	     31.92125721	     58.58709920	     78.05388576	      0.00000000	      0.00000000
      1.09600000	     18.50482095	      4.84421526	      6.17271263	      1.50631347	      0.96689685	     -0.36626897	      7.00466720	     -6.98499039	    -12.03169948	     21.08081486	      0.36792963	    -10.08900422	      0.00000000	      0.00000000	    -29.25734300	      4.91653363	      7.53941255	      9.54394991	      0.16657335	     -2.84158413	      0.00000000	      0.00000000	    -32.95261220	     -0.66385755	    -10.30841161	     -2.69440667	    -14.04759277	      6.33868102	     44.67680866	     76.39234942	      0.00000000	      0.00000000	     13.60329259	    -28.22118754	     31.97073191	     58.73634722	     78.00488214	      0.00000000	      0.00000000
      1.10000000	     18.22424778	      4.95556802	      6.09020431	      1.51113032	      0.96535507	     -0.36619813	      7.66981504	     -7.07836372	    -12.34020257	     20.27558267	      0.35387568	    -10.09781309	      0.00000000	      0.00000000	    -29.28444136	      5.06490207	      7.33995624	      9.58287138	      0.16725266	     -2.66331942	      0.00000000	      0.00000000	    -32.75456853	     -0.82349056	    -10.31967211	     -2.68896948	    -14.03805953	      6.32423288	     44.65686798	     76.43148670	      0.00000000	      0.00000000	     13.80668455	    -28.31081579	     31.99237739	     59.04114509	     77.98400545	      0.00000000	      0.00000000
      1.10400000	     18.01327436	      5.00352316	      6.03137156	      1.51569116	      0.96412307	     -0.36572539	      8.02640979	     -6.93457343	    -12.00629990	     18.85296032	      0.32904623	    -10.72014194	      0.00000000	      0.00000000	    -29.30952824	      5.09494529	      7.27250304	      9.74879500	      0.17014857	     -2.34902278	      0.00000000	      0.00000000	    -32.67401921	     -0.93015984	    -10.34204332	     -2.55049716	    -13.89877202	      6.18111246	     44.43977116	     76.54638882	      0.00000000	      0.00000000	     14.09644600	    -28.36539484	     31.86594483	     59.19019251	     77.91345423	      0.00000000	      0.00000000
      1.10800000	     17.76001202	      5.10087747	      5.95875062	      1.52050138	      0.96268131	     -0.36551494	      8.65936587	     -6.97477440	    -12.19744021	     18.05874416	      0.31518454	    -10.76920614	      0.00000000	      0.00000000	    -29.32794427	      5.20158897	      7.10164647	      9.85775590	      0.17205030	     -2.15059448	      0.00000000	      0.00000000	    -32.50931838	     -1.07723230	    -10.33858510	     -2.52693585	    -13.86113196	      6.16721210	     44.29434953	     76.58273748	      0.00000000	      0.00000000	     14.33222344	    -28.40588844	     31.82513613	     59.36280327	     77.89668441	      0.00000000	      0.00000000
      1.11200000	     17.49824566	      5.16941020	      5.86711857	      1.52531614	      0.96117437	     -0.36513336	      9.27291809	     -6.94582732	    -12.25171317	     17.20107012	      0.30021531	    -10.94256785	      0.00000000	      0.00000000	    -29.34144280	      5.28978867	      6.98685777	      9.96392273	      0.17390326	     -1.91845125	      0.00000000	      0.00000000	    -32.32374912	     -1.22659894	    -10.31784237	     -2.44203232	    -13.78965434	      6.11675945	     44.19816046	     76.60204467	      0.00000000	      0.00000000	     14.53961133	    -28.48697943	     31.81689781	     59.62675745	     77.87462299	      0.00000000	      0.00000000
      1.11600000	     17.35671639	      5.14538033	      5.79206961	      1.52980429	      0.95995619	     -0.36457270	      9.56758524	     -6.70129556	    -11.87140716	     15.88830080	      0.27730316	    -11.56750269	      0.00000000	      0.00000000	    -29.37084113	      5.24855395	      6.78732882	     10.23685557	      0.17866683	     -1.57955017	      0.00000000	      0.00000000	    -32.32106415	     -1.25858858	    -10.28853607	     -2.28746531	    -13.68804798	      6.05754749	     43.91289181	     76.68353351	      0.00000000	      0.00000000	     14.79752273	    -28.58240756	     31.72667145	     59.82769144	     77.78996518	      0.00000000	      0.00000000
      1.12000000	     17.06472059	      5.19359525	      5.69893458	      1.53472465	      0.95840759	     -0.36422298	     10.18699395	     -6.63662408	    -11.86512401	     15.07312639	      0.26307568	    -11.72491709	      0.00000000	      0.00000000	    -29.35877425	      5.31209802	      6.61343664	     10.33764128	      0.18042588	     -1.34002377	      0.00000000	      0.00000000	    -32.10917510	     -1.36817736	    -10.27244751	     -2.21696918	    -13.61697861	      6.02128777	     43.78295777	     76.72682023	      0.00000000	      0.00000000	     15.02940286	    -28.54927879	     31.60967280	     59.84552661	     77.76850918	      0.00000000	      0.00000000
      1.12400000	     16.90859282	      5.24940121	      5.56442522	      1.53942508	      0.95709570	     -0.36374557	     10.59404521	     -6.52028578	    -11.48225620	     14.08698381	      0.24586425	    -12.20912299	      0.00000000	      0.00000000	    -29.38471012	      5.37899482	      6.48891483	     10.62611395	      0.18546068	     -1.14706154	      0.00000000	      0.00000000	    -32.06043106	     -1.51379817	    -10.18529971	     -2.07336428	    -13.52697440	      5.91561209	     43.59547766	     76.78413209	      0.00000000	      0.00000000	     15.27853208	    -28.66922460	     31.67268954	     60.13122523	     77.72378190	      0.00000000	      0.00000000
      1.12800000	     16.70119629	      5.25561726	      5.47353137	      1.54430880	      0.95566443	     -0.36343558	     11.00190531	     -6.35863791	    -11.26525591	     13.12230506	      0.22902743	    -12.48249619	      0.00000000	      0.00000000	    -29.39138226	      5.39452868	      6.28740328	     10.85669137	      0.18948501	     -0.87272468	      0.00000000	      0.00000000	    -31.93143223	     -1.56996950	    -10.12565335	     -1.96550348	    -13.49608669	      5.92799461	     43.30860223	     76.83770833	      0.00000000	      0.00000000	     15.51187821	    -28.65115718	     31.62708123	     60.18976665	     77.69515359	      0.00000000	      0.00000000
      1.13200000	     16.45812002	      5.33865020	      5.38564566	      1.54944845	      0.95405788	     -0.36319535	     11.61103695	     -6.37414762	    -11.25964057	     12.60127535	      0.21993374	    -12.45479230	      0.00000000	      0.00000000	    -29.39295536	      5.48255598	      6.17402179	     11.06080884	      0.19304753	     -0.74013026	      0.00000000	      0.00000000	    -31.74516532	     -1.71070975	    -10.09028043	     -1.96663641	    -13.47999144	      5.92471633	     43.21549998	     76.83849262	      0.00000000	      0.00000000	     15.69163901	    -28.67419924	     31.57446833	     60.32647214	     77.69086742	      0.00000000	      0.00000000
      1.13600000	     16.30078833	      5.36952118	      5.30744263	      1.55420629	      0.95274476	     -0.36271695	     11.89259062	     -6.19520857	    -10.57394262	     11.58052434	      0.20211828	    -12.84206364	      0.00000000	      0.00000000	    -29.40651049	      5.49976685	      6.09287175	     11.37591825	      0.19854723	     -0.38458701	      0.00000000	      0.00000000	    -31.69564084	     -1.79631782	    -10.07357021	     -1.76864192	    -13.36089610	      5.86620368	     42.91555319	     76.83978756	      0.00000000	      0.00000000	     15.90888638	    -28.68095637	     31.44652865	     60.41809171	     77.67514517	      0.00000000	      0.00000000
      1.14000000	     16.14619104	      5.34143497	      5.17295883	      1.55941167	      0.95134130	     -0.36220944	     12.25240252	     -6.00714410	    -10.26918257	     10.81603551	      0.18877543	    -13.12726804	      0.00000000	      0.00000000	    -29.41831931	      5.48523481	      5.73393993	     11.74474311	      0.20498444	     -0.15608742	      0.00000000	      0.00000000	    -31.58934568	     -1.84603379	     -9.95400938	     -1.68261971	    -13.30591075	      5.80676972	     42.68089020	     76.85007511	      0.00000000	      0.00000000	     16.07175750	    -28.69511347	     31.37858336	     60.51892655	     77.60717615	      0.00000000	      0.00000000
